<?xml version="1.0" encoding="UTF-8"?>
<svg version="1.1" xmlns="http://www.w3.org/2000/svg" width="2000" height="557">
<path d="M0 0 C16.17 0 32.34 0 49 0 C53.65948235 6.40678823 58.25096695 12.7394657 62.59375 19.34375 C63.62966327 20.9079132 64.66614685 22.47169882 65.703125 24.03515625 C66.239375 24.8442041 66.775625 25.65325195 67.328125 26.48681641 C70.2297639 30.84859661 73.16196313 35.18970024 76.09375 39.53125 C76.69920654 40.42827637 77.30466309 41.32530273 77.9284668 42.24951172 C79.78522601 44.99995736 81.6425232 47.75003893 83.5 50.5 C91.46592695 62.2934119 99.4167893 74.09586749 107.29882812 85.94555664 C109.74531953 89.62232972 112.20603519 93.28943597 114.66882324 96.95530701 C120.76842317 106.03793571 126.63878642 115.25460225 132.44726562 124.52539062 C135.20434795 128.91938221 137.97831513 133.30271104 140.75 137.6875 C141.76569525 139.29552855 142.78132703 140.90359718 143.796875 142.51171875 C144.22323242 143.18678467 144.64958984 143.86185059 145.08886719 144.55737305 C145.38954102 145.03343994 145.69021484 145.50950684 146 146 C146.11167467 139.56009374 145.98614751 133.17752699 145.5625 126.75 C143.79046417 98.99559377 143.86572022 71.19658594 143.93133545 43.39996338 C143.94364026 37.61146226 143.94800251 31.82294969 143.95378876 26.03443909 C143.96330645 17.35627003 143.98253498 8.67817298 144 0 C163.8 0 183.6 0 204 0 C204 80.85 204 161.7 204 245 C186.84 245 169.68 245 152 245 C140.4033595 233.05615469 140.4033595 233.05615469 138.06640625 226.875 C133.73057985 216.46158294 127.2857606 207.45379709 120.9694519 198.16149902 C117.82877321 193.51854078 114.76118303 188.82807757 111.6875 184.140625 C107.29047711 177.45959321 102.87206452 170.79337825 98.42988586 164.14230347 C87.44963052 147.69774714 76.69554449 131.12879544 66.38085938 114.2578125 C64.68090399 111.4782532 62.97171749 108.70444613 61.26196289 105.9309082 C59.83899741 103.62202466 58.41927845 101.31115132 57 99 C57.14374448 102.31259389 57.29042645 105.62505238 57.4375 108.9375 C57.47681641 109.84435547 57.51613281 110.75121094 57.55664062 111.68554688 C57.74642956 115.93389916 57.94264788 120.17763981 58.23852539 124.42016602 C59.22557293 138.87750942 59.33858746 153.35835866 59.53242874 167.8432579 C59.56270159 170.07737719 59.594466 172.31147064 59.62667847 174.54556274 C59.96409554 198.0326562 60.09284643 221.50985226 60 245 C40.2 245 20.4 245 0 245 C0 164.15 0 83.3 0 0 Z " fill="#FFFFFF" transform="translate(696,135)"/>
<path d="M0 0 C9.46343785 8.27760166 13.00785709 23.26023928 16 35 C16.4846875 34.03320312 16.969375 33.06640625 17.46875 32.0703125 C25.47753356 16.38585586 33.83620254 5.78055355 51 0 C66.34651884 -4.45412398 85.56346719 -1.29615077 99.3125 6.1875 C116.63465125 17.19379986 126.393424 33.34950002 130.99609375 53.06640625 C131.77564451 56.69472395 132.43099434 60.33216498 133 64 C133.18433594 65.155 133.36867188 66.31 133.55859375 67.5 C136.86493073 95.1469585 133.98384503 125.69644667 117.01953125 148.68359375 C115.0564478 151.16230887 113.0395678 153.58415974 111 156 C110.21625 157.03125 109.4325 158.0625 108.625 159.125 C95.01124651 174.03530144 74.12278034 184.05541872 53.98583984 185.10498047 C51.78158896 185.1851441 49.58057119 185.2274422 47.375 185.25 C46.6946167 185.25942627 46.0142334 185.26885254 45.31323242 185.27856445 C39.48792864 185.2416116 34.96014905 184.19202981 29 183 C29 206.1 29 229.2 29 253 C20.54375 254.485 12.0875 255.97 3.375 257.5 C0.7148584 257.96986328 -1.9452832 258.43972656 -4.68603516 258.92382812 C-6.80364082 259.29337076 -8.92131226 259.6625368 -11.0390625 260.03125 C-12.67717896 260.32273926 -12.67717896 260.32273926 -14.34838867 260.62011719 C-15.40340576 260.8028418 -16.45842285 260.98556641 -17.54541016 261.17382812 C-18.4558609 261.33371216 -19.36631165 261.49359619 -20.30435181 261.6583252 C-23.22845938 262.02895734 -26.05530155 262.02220823 -29 262 C-29.00238835 261.02284373 -29.00477671 260.04568747 -29.00723743 259.0389204 C-29.06620474 235.18994566 -29.14219294 211.34107054 -29.23571491 187.49220562 C-29.28055439 175.95876165 -29.31999597 164.42534774 -29.34643555 152.8918457 C-29.36951201 142.83152023 -29.40301656 132.77129086 -29.44870156 122.71104175 C-29.47250442 117.39124173 -29.49131752 112.07153612 -29.49761391 106.75168419 C-29.50372387 101.72918732 -29.52393303 96.70693158 -29.55427551 91.68452454 C-29.56296212 89.85581967 -29.56679818 88.02708316 -29.56500816 86.19835854 C-29.54985897 63.54991565 -31.91070887 35.23187424 -46.7734375 16.80078125 C-47.38058594 15.90939453 -47.38058594 15.90939453 -48 15 C-47 12 -47 12 -45.31890869 11.13897705 C-44.22567291 10.79803009 -44.22567291 10.79803009 -43.11035156 10.45019531 C-41.87336517 10.055289 -41.87336517 10.055289 -40.61138916 9.65240479 C-39.71353699 9.38039246 -38.81568481 9.10838013 -37.890625 8.828125 C-36.97166443 8.54144958 -36.05270386 8.25477417 -35.105896 7.95941162 C-33.1574154 7.35510384 -31.20700553 6.75698763 -29.25488281 6.16455078 C-26.27087925 5.2563547 -23.29557986 4.3230848 -20.3203125 3.38671875 C-18.4275544 2.8031574 -16.53433885 2.22107733 -14.640625 1.640625 C-13.75086975 1.36051575 -12.8611145 1.08040649 -11.94439697 0.79180908 C-4.11879736 -1.55103263 -4.11879736 -1.55103263 0 0 Z M43.4375 46.9375 C30.42209526 60.94511049 28.81647777 82.1036804 28.90234375 100.25390625 C28.9037587 101.39536606 28.90517365 102.53682587 28.90663147 103.71287537 C28.91219249 107.32944449 28.92473769 110.94594984 28.9375 114.5625 C28.94252004 117.02669181 28.94708206 119.4908846 28.95117188 121.95507812 C28.96214913 127.97007354 28.97884806 133.98503221 29 140 C30.25248535 140.32234619 31.5049707 140.64469238 32.79541016 140.97680664 C33.49993317 141.15812637 34.20445618 141.33944611 34.93032837 141.52626038 C42.99496023 143.37222261 50.68300195 142.68848185 57.84765625 138.54296875 C66.72853974 132.17645518 70.24711165 122.44363512 72 112 C74.56152937 92.91724976 76.67647622 65.49554834 67 48 C64.11421808 44.46123093 61.29549568 42.45882139 57 40.9375 C51.34744272 41.05526161 47.53105878 43.24969044 43.4375 46.9375 Z " fill="#FFFFFF" transform="translate(1843,197)"/>
<path d="M0 0 C1.21115479 0.29801514 1.21115479 0.29801514 2.44677734 0.60205078 C25.95783865 6.57716345 46.29886027 18.77019051 65 34 C66.52173828 35.21429688 66.52173828 35.21429688 68.07421875 36.453125 C76.36959136 43.22628277 83.93309279 50.74943856 91.5 58.3125 C92.02477936 58.83628235 92.54955872 59.3600647 93.09024048 59.89971924 C109 75.81290363 109 75.81290363 109 79 C107.87078125 79.29390625 107.87078125 79.29390625 106.71875 79.59375 C93.56417388 83.29746561 81.34093871 88.95167863 71 98 C70.34 98.51820313 69.68 99.03640625 69 99.5703125 C60.74901401 106.2420082 54.08094422 115.20573386 50 125 C49.401875 126.093125 48.80375 127.18625 48.1875 128.3125 C47.91150828 133.74033716 50.57979573 135.89767533 54.09765625 139.84375 C54.56316895 140.34777344 55.02868164 140.85179687 55.50830078 141.37109375 C57.66519746 143.72638256 59.74401029 146.14672688 61.83007812 148.56469727 C62.94950638 149.86202296 64.07194043 151.15676071 65.19726562 152.44897461 C69.12498193 156.95931745 72.93359614 161.55242668 76.69921875 166.19921875 C79.88035204 170.07166793 83.14753555 173.86728783 86.41601562 177.66601562 C91.18706167 183.21107167 95.91348405 188.79283679 100.63232422 194.38232422 C102.02459417 196.02908979 103.42005473 197.67310067 104.81640625 199.31640625 C109.04853633 204.30026248 113.25737398 209.29559272 117.375 214.375 C121.54221124 219.49813067 125.86312457 224.47594928 130.20263672 229.45263672 C134.10409054 233.93731517 137.88477907 238.50472708 141.625 243.125 C144.5249597 246.63547753 147.50761195 250.06829935 150.5 253.5 C154.99747977 258.65851311 159.38995452 263.88157094 163.69921875 269.19921875 C166.38060196 272.46331342 169.12111924 275.67206932 171.875 278.875 C172.37628418 279.45950928 172.87756836 280.04401855 173.39404297 280.64624023 C175.97615579 283.6548443 178.56886614 286.65348452 181.17578125 289.640625 C182.17983702 290.80195408 183.18374888 291.9634076 184.1875 293.125 C184.65720215 293.65722168 185.1269043 294.18944336 185.61083984 294.73779297 C187.8899353 297.38808215 189.56904966 299.46789724 190 303 C188.43122326 304.5358444 186.84443846 306.05331331 185.25 307.5625 C183.92742187 308.83287109 183.92742187 308.83287109 182.578125 310.12890625 C180 312 180 312 177.98828125 312.13671875 C174.98856779 310.42175487 173.06265931 307.90950253 170.9375 305.25 C169.95727827 304.05708865 168.97680248 302.86438601 167.99609375 301.671875 C167.49835449 301.06021484 167.00061523 300.44855469 166.48779297 299.81835938 C164.19421657 297.01518297 161.84643587 294.25892657 159.5 291.5 C158.58303376 290.41692023 157.66636796 289.33358602 156.75 288.25 C156.29625 287.71375 155.8425 287.1775 155.375 286.625 C154 285 152.625 283.375 151.25 281.75 C150.79608887 281.21358887 150.34217773 280.67717773 149.87451172 280.12451172 C148.95935587 279.04290479 148.0443165 277.96119931 147.12939453 276.87939453 C144.81556522 274.14382061 142.49963529 271.41007526 140.1796875 268.6796875 C135.94920376 263.69685653 131.7414632 258.70297285 127.625 253.625 C123.45778876 248.50186933 119.13687543 243.52405072 114.79736328 238.54736328 C110.89590946 234.06268483 107.11522093 229.49527292 103.375 224.875 C100.4750403 221.36452247 97.49238805 217.93170065 94.5 214.5 C90.00252023 209.34148689 85.61004548 204.11842906 81.30078125 198.80078125 C78.11964796 194.92833207 74.85246445 191.13271217 71.58398438 187.33398438 C66.81293833 181.78892833 62.08651595 176.20716321 57.36767578 170.61767578 C55.97540583 168.97091021 54.57994527 167.32689933 53.18359375 165.68359375 C47.98067157 159.55646828 42.83573901 153.39206101 37.77734375 147.14453125 C36.02744291 144.96529769 36.02744291 144.96529769 34 143 C17.44917856 144.12754988 0.92606456 156.31370764 -10 168 C-16.31159625 175.74094588 -23.86506157 185.09564645 -26 195 C-26.66 195 -27.32 195 -28 195 C-31.25116567 191.55540113 -34.0794957 187.72678466 -37 184 C-37.50031738 183.36787598 -38.00063477 182.73575195 -38.51611328 182.08447266 C-70.50650565 141.58042848 -92.37035712 96.31516765 -86.17895508 43.55102539 C-84.74851819 32.8613448 -82.52622427 22.43081389 -79.54394531 12.06884766 C-78.90907637 9.80426434 -78.90907637 9.80426434 -78.4921875 6.63671875 C-77.84812807 3.50259858 -77.37923085 2.15449857 -75 0 C-54.2877781 -7.56384895 -21.15470337 -5.31854187 0 0 Z " fill="#FFFFFF" transform="translate(164,52)"/>
<path d="M0 0 C2.85779017 1.29719924 4.91008536 2.6636826 7.11621094 4.88916016 C7.98666046 5.75983627 7.98666046 5.75983627 8.87469482 6.64810181 C9.48838928 7.27211884 10.10208374 7.89613586 10.734375 8.5390625 C11.37240051 9.17991791 12.01042603 9.82077332 12.66778564 10.48104858 C14.69994069 12.52437821 16.72502218 14.57455982 18.75 16.625 C20.1284453 18.0134786 21.50734636 19.4015049 22.88671875 20.7890625 C26.26311894 24.18748697 29.63319288 27.59207254 33 31 C31.00396327 33.33682348 29.00369551 35.66975486 27 38 C26.47277847 38.6164035 25.94555695 39.23280701 25.40235901 39.8678894 C21.23207789 44.6968976 16.86773777 49.26460022 12.33984375 53.7578125 C11.60879425 54.48740173 10.87774475 55.21699097 10.12454224 55.96868896 C8.55046614 57.53898485 6.97523677 59.1081254 5.3989563 60.6762085 C2.8988955 63.16340587 0.40205928 65.65380092 -2.09399414 68.14501953 C-8.29130926 74.32902554 -14.49407014 80.50755998 -20.69665527 86.6862793 C-25.94759997 91.91743969 -31.19645611 97.15067907 -36.44259644 102.38665771 C-38.89270098 104.8303188 -41.34581693 107.27092848 -43.79907227 109.71142578 C-45.31281195 111.22153015 -46.82640985 112.73177667 -48.33984375 114.2421875 C-49.35158157 115.24617584 -49.35158157 115.24617584 -50.38375854 116.27044678 C-54.22861338 120.11487743 -57.86737092 124.0778116 -61.42061806 128.19281578 C-63.42362019 130.48472108 -65.52760795 132.65467836 -67.6784668 134.80786133 C-68.52591965 135.65846634 -69.3733725 136.50907135 -70.24650574 137.38545227 C-71.58434868 138.72025887 -71.58434868 138.72025887 -72.94921875 140.08203125 C-73.8938477 141.02733569 -74.83832832 141.97278838 -75.78266907 142.91838074 C-77.74680617 144.88398038 -79.71271063 146.8477897 -81.67993164 148.81030273 C-84.19497246 151.31961546 -86.70545353 153.83343486 -89.21464825 156.3485918 C-91.62374248 158.76217179 -94.03664282 161.17193145 -96.44921875 163.58203125 C-97.34718674 164.48202347 -98.24515472 165.38201569 -99.17033386 166.3092804 C-100.42732841 167.56154671 -100.42732841 167.56154671 -101.7097168 168.83911133 C-102.4436113 169.57221024 -103.1775058 170.30530914 -103.93363953 171.06062317 C-108.28346053 175.14313548 -110.95012318 176.41828108 -117 177 C-115.60487631 178.95884183 -114.20890647 180.91707279 -112.8125 182.875 C-112.37558838 183.48835205 -111.93867676 184.1017041 -111.48852539 184.73364258 C-108.83800689 188.44805937 -106.1680645 192.14718441 -103.4765625 195.83203125 C-102.8889917 196.63850098 -102.3014209 197.4449707 -101.69604492 198.27587891 C-100.53529562 199.8676992 -99.37145484 201.45727038 -98.2043457 203.04443359 C-97.67156006 203.7761377 -97.13877441 204.5078418 -96.58984375 205.26171875 C-96.11409912 205.91100342 -95.63835449 206.56028809 -95.14819336 207.22924805 C-94 209 -94 209 -93 212 C-100.73487295 212.45959371 -108.46619773 212.77280432 -116.21166992 212.98876953 C-118.84028577 213.07883816 -121.46801083 213.20135523 -124.09350586 213.35791016 C-145.28360982 214.5890041 -145.28360982 214.5890041 -151.4112854 210.32019043 C-155.50680623 206.14513959 -158.27817143 201.34320911 -160.88851929 196.14398193 C-162.2813085 193.45737219 -163.99545502 191.16232175 -165.89453125 188.8125 C-166.39404297 188.15765625 -166.89355469 187.5028125 -167.40820312 186.828125 C-168.39344045 185.5455351 -169.38058637 184.26441012 -170.36914062 182.984375 C-174 178.21432744 -174 178.21432744 -174 176 C-231.42 176 -288.84 176 -348 176 C-348.66 177.65 -349.32 179.3 -350 181 C-350.72370674 182.26087448 -351.48558705 183.50065884 -352.28515625 184.71484375 C-352.73439453 185.40255859 -353.18363281 186.09027344 -353.64648438 186.79882812 C-354.11376953 187.50458984 -354.58105469 188.21035156 -355.0625 188.9375 C-355.97044735 190.32135533 -356.87798361 191.70548044 -357.78515625 193.08984375 C-358.30811279 193.83073242 -358.83106934 194.57162109 -359.36987305 195.33496094 C-361.15661937 198.06807543 -361.15661937 198.06807543 -362.37426758 201.65722656 C-364.14767294 205.95420652 -365.97939165 209.46548654 -370 212 C-379.20138649 214.40999589 -389.1641309 213.30517642 -398.5625 212.875 C-401.21923635 212.79678211 -403.87586474 212.7408675 -406.53320312 212.68359375 C-413.0260196 212.5297337 -419.51218886 212.2959223 -426 212 C-425.2238696 210.58279095 -424.44521157 209.166966 -423.66552734 207.75170898 C-423.23219086 206.96311996 -422.79885437 206.17453094 -422.35238647 205.36204529 C-420.30650596 201.78876019 -417.98945176 198.43011598 -415.625 195.0625 C-415.14893311 194.37736328 -414.67286621 193.69222656 -414.18237305 192.98632812 C-412.79239323 190.98795308 -411.39687522 188.9935588 -410 187 C-409.25105469 185.92621094 -408.50210938 184.85242188 -407.73046875 183.74609375 C-406.15784589 181.49445653 -404.57969683 179.24667994 -403 177 C-414.385 176.505 -414.385 176.505 -426 176 C-426 161.48 -426 146.96 -426 132 C-420.66070564 132.20437935 -420.66070564 132.20437935 -415.21354675 132.41288757 C-382.24550191 133.64239822 -349.28251002 134.52141999 -316.29542507 135.0391948 C-311.93543154 135.10793698 -307.57549137 135.17963811 -303.21557617 135.25317383 C-302.347929 135.26775801 -301.48028182 135.2823422 -300.58634231 135.29736833 C-288.41251472 135.50812573 -276.25269691 135.87815548 -264.08738329 136.3765166 C-243.15711413 137.23368707 -222.24227812 137.79275568 -201.29296875 137.76171875 C-200.07887118 137.76068784 -200.07887118 137.76068784 -198.84024638 137.7596361 C-159.54605296 137.67914973 -125.60659906 136.21946712 -95.9934845 107.08930969 C-84.75477597 95.45869599 -74.98073183 82.71148191 -66.31691605 69.07487202 C-63.26422981 64.2931328 -59.94970886 60.06140894 -56 56 C-55.50456412 55.48093488 -55.00912825 54.96186975 -54.49867916 54.42707539 C-53.03742923 52.91734681 -51.55573457 51.43145499 -50.06469727 49.95117188 C-49.51747513 49.40380371 -48.97025299 48.85643555 -48.40644836 48.29248047 C-46.62879879 46.51551775 -44.84765322 44.74210597 -43.06640625 42.96875 C-41.82065756 41.72486987 -40.57513205 40.48076619 -39.32981873 39.2364502 C-36.07538764 35.98580985 -32.81796319 32.73818572 -29.55987549 29.49121094 C-26.22623132 26.16785548 -22.89546923 22.8416142 -19.56445312 19.515625 C-13.04576354 13.00761191 -6.52390347 6.50278617 0 0 Z " fill="#FFFFFF" transform="translate(495,314)"/>
<path d="M0 0 C3 0 3 0 4.39111328 1.38598633 C4.86274902 2.02818115 5.33438477 2.67037598 5.8203125 3.33203125 C6.35084229 4.04254639 6.88137207 4.75306152 7.42797852 5.48510742 C7.98799561 6.25314697 8.5480127 7.02118652 9.125 7.8125 C10.30205516 9.3890149 11.48044172 10.96453663 12.66015625 12.5390625 C13.52084717 13.69390137 13.52084717 13.69390137 14.39892578 14.87207031 C21.47266994 24.27352717 29.32156271 33.09224442 37 42 C48.4242669 55.25329274 48.4242669 55.25329274 53.4375 61.4375 C57.72149429 66.72161796 62.17345702 71.8504406 66.65991211 76.96264648 C67.19366455 77.57309814 67.72741699 78.1835498 68.27734375 78.8125 C68.75421631 79.35519531 69.23108887 79.89789063 69.72241211 80.45703125 C71 82 71 82 73 85 C75.92783067 83.67844674 77.99203162 82.25379042 80.24996948 79.9770813 C80.86944458 79.35746521 81.48891968 78.73784912 82.12716675 78.09945679 C82.79531403 77.42097687 83.4634613 76.74249695 84.15185547 76.04345703 C84.86456604 75.32782593 85.57727661 74.61219482 86.31158447 73.87487793 C87.85795699 72.32089713 89.40201467 70.76461019 90.94402695 69.20630264 C93.38604664 66.73875623 95.83425954 64.27751112 98.28421021 61.81784058 C104.36912183 55.70618276 110.44317791 49.58377191 116.51757812 43.46166992 C121.64883452 38.29092769 126.78417703 33.12431004 131.92502213 27.96310043 C134.33426304 25.54091388 136.7373879 23.11276966 139.14035034 20.68435669 C140.62305401 19.19438516 142.10604078 17.70469528 143.58935547 16.21533203 C144.25345428 15.54090057 144.9175531 14.86646912 145.60177612 14.17160034 C152.10844654 7.66346238 157.88037184 3.56663224 167.375 2.6875 C174.77494746 3.32542651 180.83589665 5.47561037 186 11 C189.97653279 17.14442449 191.2906912 23.78731391 190 31 C187.51895911 38.65059697 183.12446832 43.60298064 177.49047852 49.18823242 C176.63295486 50.05773026 175.77543121 50.92722809 174.891922 51.82307434 C172.55359313 54.18795199 170.20465032 56.54110785 167.84891629 58.88857436 C165.87402286 60.85928205 163.90679002 62.83755196 161.93939441 64.81574041 C157.2910642 69.48914558 152.62981858 74.14938172 147.96020508 78.80151367 C143.16705901 83.57716767 138.39623409 88.37430753 133.63596779 93.1827175 C129.52786792 97.33079148 125.40611084 101.46494667 121.27343506 105.58853608 C118.81440282 108.04242226 116.36058449 110.50096288 113.91986275 112.97307396 C111.19108401 115.73550802 108.43400685 118.46862948 105.67407227 121.19995117 C104.88552856 122.00580658 104.09698486 122.81166199 103.2845459 123.64193726 C90.33394914 136.30892636 78.03301367 136.87971027 60.8449707 136.76049805 C58.6228449 136.76700092 56.40072535 136.77606882 54.17861938 136.78749084 C48.17662264 136.81046293 42.17526619 136.7959182 36.17329049 136.77302146 C29.87725243 136.75403224 23.58125533 136.76527495 17.28520203 136.77192688 C6.04228417 136.77866069 -5.20037226 136.75597278 -16.4432141 136.72098748 C-26.62052808 136.69007671 -36.79751427 136.68773861 -46.97485352 136.70678711 C-60.08733394 136.73130127 -73.1996173 136.7302949 -86.31211281 136.70801735 C-91.30831819 136.70004734 -96.30437263 136.70200363 -101.30057335 136.71204185 C-107.18513507 136.72261631 -113.06913641 136.70839846 -118.95360947 136.67529869 C-121.10861882 136.66711319 -123.26367972 136.66734983 -125.41868401 136.67677689 C-148.08327743 136.76501174 -148.08327743 136.76501174 -156.4375 128.625 C-160.57567357 121.6728684 -162.18414622 116.14379809 -161 108 C-158.47950188 100.40619157 -154.7125459 95.94534119 -148 91.75 C-143.07725715 89.90397143 -137.99999159 89.87722421 -132.80126953 89.88647461 C-131.76120003 89.88625557 -131.76120003 89.88625557 -130.70011902 89.8860321 C-128.42765074 89.88672404 -126.15526631 89.8944825 -123.8828125 89.90234375 C-122.29955083 89.90421049 -120.71628858 89.90563318 -119.13302612 89.90663147 C-114.98037094 89.91043651 -110.82775114 89.92024949 -106.67510986 89.93133545 C-102.43184894 89.94159297 -98.18858227 89.94613837 -93.9453125 89.95117188 C-85.63019216 89.96187367 -77.31510049 89.97892576 -69 90 C-68.54775055 89.07201096 -68.54775055 89.07201096 -68.08636475 88.12527466 C-66.9176358 85.83886945 -65.55978555 83.91806984 -64.015625 81.8671875 C-63.4172583 81.07022461 -62.8188916 80.27326172 -62.20239258 79.45214844 C-61.55810303 78.60168945 -60.91381348 77.75123047 -60.25 76.875 C-59.58186279 75.98844727 -58.91372559 75.10189453 -58.2253418 74.18847656 C-53.23499681 67.5848355 -48.16915853 61.04225183 -43.0703125 54.5222168 C-39.24055628 49.61832685 -35.47317096 44.6727323 -31.75 39.6875 C-30.76433016 38.36978625 -29.77865324 37.05207779 -28.79296875 35.734375 C-27.43517451 33.9190176 -26.07738988 32.1036593 -24.72119141 30.28710938 C-18.28407383 21.69068939 -11.40262261 13.57149881 -4.29345703 5.52685547 C-2.87106755 3.89697773 -2.87106755 3.89697773 -1.30859375 1.56640625 C-0.87675781 1.04949219 -0.44492187 0.53257812 0 0 Z M1 72 C-0.01489832 73.19956317 -0.9873351 74.43510721 -1.94140625 75.68359375 C-2.52470703 76.44607422 -3.10800781 77.20855469 -3.70898438 77.99414062 C-4.62647461 79.20360352 -4.62647461 79.20360352 -5.5625 80.4375 C-6.17802734 81.23994141 -6.79355469 82.04238281 -7.42773438 82.86914062 C-10.43323879 86.13922766 -10.43323879 86.13922766 -12 90 C-2.76 90 6.48 90 16 90 C10.90490688 83.19908545 10.90490688 83.19908545 5.6875 76.5 C5.01074219 75.6440625 4.33398438 74.788125 3.63671875 73.90625 C3.09660156 73.2771875 2.55648437 72.648125 2 72 C1.67 72 1.34 72 1 72 Z " fill="#FFFFFF" transform="translate(268,291)"/>
<path d="M0 0 C1.2684375 -0.01611328 2.536875 -0.03222656 3.84375 -0.04882812 C15.58542145 -0.05481877 27.06331652 1.39614877 37.5625 6.9375 C38.5678479 7.46126221 38.5678479 7.46126221 39.59350586 7.99560547 C51.74362047 14.6143793 58.35199381 24.83467906 62.34765625 37.90234375 C66.00292917 53.28849255 64.61131994 67.25559028 57.16796875 81.296875 C44.60237721 101.05377249 22.05823815 112.6535898 -0.20800781 117.890625 C-9.01668727 119.84005985 -17.77103071 121.41280368 -26.75 122.3125 C-26.75 128.2128459 -24.11452807 132.16824161 -21 137.0625 C-15.20242314 142.86007686 -7.91626936 144.42655912 0.0625 144.6875 C16.05660697 144.55323677 32.01466888 139.82549818 46.9609375 134.44921875 C50.25 133.3125 50.25 133.3125 52.25 133.3125 C53.70693606 138.20132989 55.14893442 143.09422837 56.57739258 147.99145508 C57.06519143 149.65606259 57.55701837 151.31949529 58.05297852 152.98168945 C58.76605938 155.37412223 59.46444435 157.77043585 60.16015625 160.16796875 C60.38405533 160.9077446 60.60795441 161.64752045 60.83863831 162.40971375 C61.95787644 166.32345946 62.84156708 169.45874179 61.25 173.3125 C59.55786133 174.53515625 59.55786133 174.53515625 57.33203125 175.375 C56.50074707 175.69452637 55.66946289 176.01405273 54.81298828 176.34326172 C53.45149658 176.82303467 53.45149658 176.82303467 52.0625 177.3125 C51.12647949 177.6542627 50.19045898 177.99602539 49.22607422 178.34814453 C39.10210119 181.91942784 28.78758758 184.3292785 18.25 186.3125 C16.331875 186.68181641 16.331875 186.68181641 14.375 187.05859375 C-10.28990991 191.05012493 -38.96074037 189.68555472 -60.15625 175.25390625 C-76.95674605 162.67883616 -86.28536344 145.99325398 -89.75 125.3125 C-94.14006358 94.68481327 -92.2906077 60.57257434 -73.52636719 34.62011719 C-55.35392738 10.83540198 -29.52459455 -0.07410792 0 0 Z M-23.02734375 50.88671875 C-29.77043956 60.33525118 -31.32861301 72.99825933 -31.75 84.3125 C-20.66738766 84.84875544 -11.71585506 81.92462454 -2.75 75.3125 C2.95659133 70.08646373 6.31968799 64.15520122 6.6875 56.3125 C6.50860709 51.20238527 5.38706451 48.35766213 2.25 44.3125 C-7.48175713 37.75414194 -16.31928061 42.61959506 -23.02734375 50.88671875 Z " fill="#FFFFFF" transform="translate(1019.75,194.6875)"/>
<path d="M0 0 C8.39665158 -0.46602272 16.78781699 -0.81992174 25.1942482 -1.03624344 C29.09967268 -1.14015657 32.99619263 -1.28055754 36.89648438 -1.50878906 C62.03534467 -2.94188917 62.03534467 -2.94188917 68.5479126 1.890625 C72.5986464 6.53671091 74.90363756 11.70817418 76.98474121 17.45874023 C78.59126568 21.47997702 80.95802747 24.92867779 83.375 28.5 C87.38020437 34.79999851 90.84417402 41.22651985 94 48 C102.52156038 32.26154173 109.71033986 17.19139546 115 0 C134.8 0 154.6 0 175 0 C173.65180323 7.41508226 172.49903268 13.20433068 169.5625 19.875 C169.21687012 20.67381592 168.87124023 21.47263184 168.51513672 22.2956543 C159.38242819 42.98350327 147.43653915 66.93719164 129.26342773 81.38012695 C127.7347408 82.97285958 127.7347408 82.97285958 128.13867188 85.39038086 C129.05604072 88.16979004 130.19920358 90.29297265 131.78125 92.75390625 C132.36729004 93.67647217 132.95333008 94.59903809 133.55712891 95.54956055 C134.19827637 96.54383057 134.83942383 97.53810059 135.5 98.5625 C136.87412065 100.7254677 138.24644506 102.88957734 139.6171875 105.0546875 C139.97452972 105.61776108 140.33187195 106.18083466 140.70004272 106.76097107 C144.76628395 113.18113441 148.69561405 119.68303914 152.625 126.1875 C154.05514305 128.55129442 155.48627045 130.91449102 156.91796875 133.27734375 C157.26451004 133.8492897 157.61105133 134.42123566 157.96809387 135.01051331 C161.2621137 140.44175729 164.59206793 145.8503113 167.9375 151.25 C168.71637573 152.50889038 168.71637573 152.50889038 169.51098633 153.79321289 C171.99048191 157.79233542 174.48953241 161.77729373 177.0234375 165.7421875 C177.49531494 166.48436523 177.96719238 167.22654297 178.45336914 167.99121094 C179.33202382 169.37066879 180.21626155 170.7465933 181.10717773 172.11816406 C184 176.66550324 184 176.66550324 184 180 C175.89936753 180.56016082 167.80697288 180.9842521 159.691679 181.24349213 C155.92073659 181.36806053 152.16314235 181.53607742 148.39990234 181.81054688 C124.23457023 183.5268633 124.23457023 183.5268633 117.32049561 177.76831055 C112.70231746 172.06299349 109.8206216 165.67404647 107.15594482 158.87719727 C105.71783771 155.29768571 103.93896656 152.1946333 101.9296875 148.90625 C100.90979402 147.10510807 99.89143718 145.30309468 98.875 143.5 C98.35164063 142.57832031 97.82828125 141.65664063 97.2890625 140.70703125 C94.36972408 135.53921248 91.60450567 130.33362884 89 125 C86.23246468 128.39574885 84.34108185 132.11329755 82.375 136 C78.00940882 144.44752877 73.13331093 152.57213314 68.1875 160.6875 C67.81365173 161.30181885 67.43980347 161.9161377 67.05462646 162.54907227 C64.72182482 166.37779718 62.3838095 170.20275656 60 174 C59.33786499 175.6560022 59.33786499 175.6560022 58.66235352 177.34545898 C54.7235663 181.27268809 51.19186401 180.68169041 45.78900146 180.67977905 C44.39577836 180.64914125 43.0025696 180.61784531 41.609375 180.5859375 C40.18021425 180.57474205 38.75103042 180.5662035 37.32183838 180.56021118 C33.56636597 180.53733905 29.81229356 180.47843371 26.05737305 180.4119873 C22.2233372 180.35052752 18.38907432 180.32318853 14.5546875 180.29296875 C7.03582115 180.22868551 -0.48189302 180.12632986 -8 180 C-7.07111455 178.27433125 -6.13939951 176.55018547 -5.20654297 174.82666016 C-4.68800751 173.86635895 -4.16947205 172.90605774 -3.63522339 171.91665649 C-1.02159163 167.25486771 1.9190951 162.82465165 4.875 158.375 C6.20411421 156.35611964 7.53220334 154.33656413 8.859375 152.31640625 C9.54064453 151.28016113 10.22191406 150.24391602 10.92382812 149.17626953 C14.36376215 143.91362352 17.74407676 138.6131762 21.125 133.3125 C25.46875436 126.50647965 29.82509422 119.70997046 34.23754883 112.94824219 C35.82904586 110.50796256 37.4131334 108.06301053 38.99609375 105.6171875 C41.00223195 102.51969448 43.03961991 99.44602749 45.09765625 96.3828125 C46.04478942 94.94304935 46.99143023 93.50296214 47.9375 92.0625 C48.3814209 91.41788818 48.8253418 90.77327637 49.28271484 90.10913086 C51.56976496 86.61954947 51.56976496 86.61954947 51.58203125 82.5859375 C51.05996094 81.73257813 50.53789063 80.87921875 50 80 C49.64349365 79.4021167 49.2869873 78.8042334 48.91967773 78.18823242 C47.56635945 75.9547674 46.16320225 73.75854549 44.75 71.5625 C43.95480957 70.31557373 43.95480957 70.31557373 43.14355469 69.04345703 C42.01013901 67.26667099 40.87499772 65.49098473 39.73828125 63.71630859 C38.03869581 61.06046764 36.34616088 58.40028665 34.65625 55.73828125 C29.03233138 46.88121807 23.38595886 38.03882407 17.72167969 29.20751953 C0 1.56846763 0 1.56846763 0 0 Z " fill="#FFFFFF" transform="translate(1094,200)"/>
<path d="M0 0 C60.06 0 120.12 0 182 0 C181.36954962 6.30450384 180.68705184 12.42039117 179.58984375 18.6328125 C179.47290161 19.31077881 179.35595947 19.98874512 179.23547363 20.68725586 C178.80666907 23.16717327 178.37175104 25.64603051 177.9375 28.125 C176.968125 33.69375 175.99875 39.2625 175 45 C156.19 45 137.38 45 118 45 C118 111 118 177 118 245 C98.2 245 78.4 245 58 245 C58 179 58 113 58 45 C38.86 45 19.72 45 0 45 C0 30.15 0 15.3 0 0 Z " fill="#FFFFFF" transform="translate(1395,135)"/>
<path d="M0 0 C0 15.84 0 31.68 0 48 C14.19 48 28.38 48 43 48 C39.44579646 72.87942478 39.44579646 72.87942478 38.375 79.6875 C38.19324219 80.87956055 38.19324219 80.87956055 38.0078125 82.09570312 C37.11897321 87.76205357 37.11897321 87.76205357 36 90 C24.12 90 12.24 90 0 90 C0.11998525 104.20127487 0.11998525 104.20127487 0.2578125 118.40234375 C0.31801851 124.19804514 0.37617675 129.99371447 0.421875 135.78955078 C0.45886742 140.46455715 0.50526464 145.13938587 0.55806351 149.8142395 C0.57653351 151.59389109 0.59166848 153.37358066 0.60334396 155.15328979 C0.62033365 157.65445985 0.64939795 160.1552296 0.68115234 162.65625 C0.68331253 163.38489761 0.68547272 164.11354523 0.68769836 164.86427307 C0.78186137 170.70581975 1.1972886 176.73207276 4.9375 181.4375 C9.16993731 184.6438919 13.73556121 184.21799408 18.8125 184.25 C19.58787109 184.270625 20.36324219 184.29125 21.16210938 184.3125 C28.67853563 184.36103221 35.71589568 182.74392386 43 181 C44.42728561 186.37433767 45.85136959 191.74950939 47.27246094 197.12548828 C47.75660155 198.95514988 48.24162446 200.78457826 48.72753906 202.61376953 C49.42483541 205.23930375 50.11898001 207.86565362 50.8125 210.4921875 C51.03123779 211.31306854 51.24997559 212.13394958 51.4753418 212.97970581 C53 218.77225659 53 218.77225659 53 221 C49.62917639 221.97342719 46.25269407 222.92571343 42.875 223.875 C41.94300781 224.14441406 41.01101563 224.41382813 40.05078125 224.69140625 C27.61274389 228.16051871 15.385255 229.34702641 2.5 229.3125 C0.69595703 229.33666992 0.69595703 229.33666992 -1.14453125 229.36132812 C-17.55480944 229.37014138 -34.89618882 225.81505227 -47 214 C-58.82961963 201.21765932 -57.55423057 181.95512741 -57.390625 165.78125 C-57.3831467 163.58451864 -57.3774613 161.38778051 -57.37347412 159.19104004 C-57.35834283 153.46340892 -57.31917142 147.73619608 -57.2746582 142.00872803 C-57.23343292 136.14259496 -57.21540539 130.27639303 -57.1953125 124.41015625 C-57.15266283 112.93989264 -57.08241798 101.47004685 -57 90 C-66.24 90 -75.48 90 -85 90 C-85 76.14 -85 62.28 -85 48 C-75.43 48 -65.86 48 -56 48 C-55.566875 44.865 -55.13375 41.73 -54.6875 38.5 C-54.27054859 35.60219907 -53.84403123 32.70602539 -53.41455078 29.81005859 C-53.15194601 28.02997561 -52.89446889 26.24912229 -52.64404297 24.46728516 C-52.32732621 22.24473569 -51.98118855 20.02901494 -51.625 17.8125 C-51.43164062 16.54019531 -51.23828125 15.26789063 -51.0390625 13.95703125 C-50 11 -50 11 -48.01733398 9.95043945 C-43.95207029 8.66990935 -39.84671333 7.74056324 -35.68359375 6.8359375 C-34.34337914 6.54053574 -34.34337914 6.54053574 -32.97608948 6.23916626 C-31.09300263 5.82529989 -29.20944053 5.41359073 -27.32543945 5.00390625 C-24.4427395 4.37614101 -21.56214293 3.73932659 -18.68164062 3.1015625 C-16.84907755 2.69997642 -15.01639902 2.29891676 -13.18359375 1.8984375 C-11.89285194 1.61255264 -11.89285194 1.61255264 -10.57603455 1.32089233 C-9.36941917 1.06029526 -9.36941917 1.06029526 -8.13842773 0.79443359 C-7.08183205 0.56365616 -7.08183205 0.56365616 -6.00389099 0.32821655 C-4 0 -4 0 0 0 Z " fill="#FFFFFF" transform="translate(1364,152)"/>
<path d="M0 0 C7.36572858 7.44527209 11.22875885 18.42140159 15 28 C15.61875 26.948125 15.61875 26.948125 16.25 25.875 C24.17799745 12.85043276 33.97292757 3.87525616 49 0 C54.39525634 -1.21699654 59.614873 -1.22174294 65.125 -1.25 C66.10726563 -1.270625 67.08953125 -1.29125 68.1015625 -1.3125 C74.91402554 -1.34835507 81.70852265 -0.8358028 88 2 C89.15486478 5.46459433 88.80155866 6.5409246 87.84423828 9.99047852 C87.56709991 11.00485489 87.28996155 12.01923126 87.00442505 13.06434631 C86.69616791 14.15815109 86.38791077 15.25195587 86.0703125 16.37890625 C85.7605246 17.50191635 85.45073669 18.62492645 85.13156128 19.78196716 C84.47461162 22.15773663 83.81362115 24.53239184 83.14892578 26.90600586 C82.12877309 30.54902609 81.11991645 34.19502089 80.11328125 37.84179688 C79.47461285 40.14601485 78.83531128 42.45005744 78.1953125 44.75390625 C77.73899948 46.39764977 77.73899948 46.39764977 77.27346802 48.07460022 C76.99002533 49.08582443 76.70658264 50.09704865 76.41455078 51.13891602 C76.04029465 52.47769554 76.04029465 52.47769554 75.65847778 53.84352112 C75 56 75 56 74 58 C73.40574219 57.7834375 72.81148437 57.566875 72.19921875 57.34375 C63.79455102 54.52040905 56.0645723 53.2710403 47.75 57 C40.21436203 61.24627219 34.95164459 67.91500018 32 76 C29.13601079 87.05295509 29.64971603 98.62839031 29.5859375 109.953125 C29.56719828 112.06590508 29.54762288 114.17867789 29.5272522 116.29144287 C29.4762158 121.81503997 29.43643865 127.33866126 29.39910889 132.86236572 C29.3518008 139.50981133 29.29032653 146.15713959 29.23126221 152.80448914 C29.1433979 162.86961131 29.07338466 172.93471498 29 183 C10.19 183 -8.62 183 -28 183 C-28.06058594 176.21824219 -28.12117188 169.43648437 -28.18359375 162.44921875 C-28.2241583 158.11522909 -28.26496702 153.78124441 -28.30664062 149.44726562 C-28.37255164 142.59026973 -28.43763 135.733274 -28.49731445 128.8762207 C-28.54556909 123.33888293 -28.59792072 117.80159681 -28.65294075 112.26432228 C-28.67309166 110.16718673 -28.69184399 108.07003718 -28.70907402 105.9728756 C-28.79310293 95.85127365 -28.93421181 85.74252197 -29.44165039 75.63208008 C-29.47758773 74.8914693 -29.51352507 74.15085852 -29.55055141 73.38780499 C-30.69397168 52.90166105 -36.42361197 35.01121987 -46 17 C-46.66984539 15.66826077 -47.3372657 14.33529228 -48 13 C-43.48406422 11.48636648 -38.96743758 9.97481793 -34.45019531 8.46508789 C-32.9177833 7.95262125 -31.3855522 7.43961332 -29.85351562 6.92602539 C-25.5320297 5.47753778 -21.20726626 4.03985916 -16.87658691 2.61907959 C-15.20618618 2.06802011 -13.53979927 1.50482727 -11.87402344 0.93994141 C-11.00551758 0.65683105 -10.13701172 0.3737207 -9.2421875 0.08203125 C-8.52659668 -0.15668701 -7.81100586 -0.39540527 -7.07373047 -0.64135742 C-4.44964218 -1.09518197 -2.54616561 -0.73946559 0 0 Z " fill="#FFFFFF" transform="translate(1597,197)"/>
<path d="M0 0 C0.66 0.33 1.32 0.66 2 1 C1.88406494 1.56396484 1.76812988 2.12792969 1.64868164 2.70898438 C1.11680816 5.30535629 0.58962854 7.90266076 0.0625 10.5 C-0.11990234 11.386875 -0.30230469 12.27375 -0.49023438 13.1875 C-4.61142716 33.56867158 -5.22976732 56.74548678 0 77 C0.18272461 77.76795898 0.36544922 78.53591797 0.55371094 79.32714844 C10.03277273 118.81545675 32.86904578 151.90219911 58 183 C55.08739643 184.94173572 53.5741106 185.40981257 50.25 186.125 C28.79223406 191.83576248 10.79604366 208.1703288 -0.27734375 226.8828125 C-3.50580861 232.72479653 -6.03588644 238.61663092 -8 245 C-11.05446408 243.67572103 -12.7367527 242.42515343 -14.6640625 239.71875 C-15.14133789 239.05125732 -15.61861328 238.38376465 -16.11035156 237.69604492 C-16.61018555 236.9713501 -17.11001953 236.24665527 -17.625 235.5 C-18.15061523 234.74243408 -18.67623047 233.98486816 -19.21777344 233.2043457 C-46.70518863 192.90633522 -57.38601487 143.64819096 -48.50048828 95.50830078 C-44.5309171 75.61397183 -37.59643051 56.84607591 -28 39 C-27.68981934 38.40912598 -27.37963867 37.81825195 -27.06005859 37.20947266 C-19.87798369 23.57834265 -10.5720393 11.19392397 0 0 Z " fill="#FFFFFF" transform="translate(70,71)"/>
<path d="M0 0 C0.80195801 0.18191895 1.60391602 0.36383789 2.43017578 0.55126953 C31.30396323 7.25037137 59.00941838 22.01627263 80.38671875 42.52734375 C82.27459205 44.31362745 84.14762211 45.97519864 86.15234375 47.6171875 C89.28521767 50.2386595 91.54753712 52.75409325 94 56 C94 56.66 94 57.32 94 58 C92.88625 58.1959375 91.7725 58.391875 90.625 58.59375 C68.06498802 62.88366288 45.95974444 75.10609648 32.61328125 94.3046875 C28.61952978 100.57952807 25.41428136 106.96364051 23 114 C19.14784442 111.19843231 16.20803995 108.04159511 13.12890625 104.45703125 C-20.97123504 65.10108837 -65.84776841 33.0833981 -119.13671875 29.12109375 C-129.81635486 28.6694311 -140.35668703 28.97940835 -151 30 C-149.81423977 26.44271931 -149.12063723 26.18270359 -145.9765625 24.36328125 C-145.13013184 23.87230957 -144.28370117 23.38133789 -143.41162109 22.87548828 C-142.49203613 22.35970215 -141.57245117 21.84391602 -140.625 21.3125 C-139.67834473 20.77866699 -138.73168945 20.24483398 -137.75634766 19.69482422 C-116.91908181 8.16257721 -94.49240817 0.76994414 -71 -3 C-70.35651611 -3.1038501 -69.71303223 -3.2077002 -69.05004883 -3.31469727 C-46.65822476 -6.34076667 -21.90381353 -5.18113529 0 0 Z " fill="#FFFFFF" transform="translate(260,9)"/>
<path d="M0 0 C18.81 0 37.62 0 57 0 C57.04898437 9.06339844 57.09796875 18.12679687 57.1484375 27.46484375 C57.1838289 33.21159801 57.219712 38.95834225 57.2578125 44.70507812 C57.31817663 53.82362574 57.37655099 62.94215458 57.421875 72.06079102 C57.45489719 78.70259104 57.4947843 85.344309 57.54279006 91.98601824 C57.56795379 95.50019069 57.58976446 99.0143094 57.60334396 102.52854729 C57.61866136 106.45915278 57.64931054 110.38956037 57.68115234 114.32006836 C57.68331253 115.47525467 57.68547272 116.63044098 57.68769836 117.82063293 C57.69028525 127.09653398 57.69028525 127.09653398 60 136 C63.7367843 138.49118953 65.74451819 138.2065226 70.1875 138.125 C71.45980469 138.10695313 72.73210937 138.08890625 74.04296875 138.0703125 C75.01878906 138.04710937 75.99460937 138.02390625 77 138 C77.71589268 142.62588527 78.42786202 147.25235108 79.13623047 151.87939453 C79.3776699 153.45280184 79.62017345 155.02604624 79.86376953 156.59912109 C80.21407659 158.86253363 80.56053056 161.12650778 80.90625 163.390625 C81.0156189 164.09181458 81.12498779 164.79300415 81.2376709 165.51544189 C81.72645454 168.73993874 82 171.72609245 82 175 C65.28769906 182.74397828 45.93816863 186.49560851 27.8125 181.375 C17.6716143 177.62300348 8.97756359 172.36091799 3.71875 162.62890625 C1.06551147 156.85811245 -0.12552249 152.13326126 -0.12025452 145.74847412 C-0.12162918 144.46402405 -0.12300385 143.17957397 -0.12442017 141.85620117 C-0.12088124 140.43505836 -0.11724643 139.01391578 -0.11352539 137.59277344 C-0.11324328 136.09466555 -0.11340171 134.59655752 -0.1139679 133.09844971 C-0.11425496 129.03268843 -0.10837292 124.96695662 -0.10139394 120.9012022 C-0.09514526 116.65176734 -0.0945554 112.40233181 -0.09336853 108.15289307 C-0.09025969 100.10651199 -0.08205231 92.06014449 -0.07201904 84.01376939 C-0.06084404 74.85303054 -0.05534395 65.69229104 -0.05032361 56.53154707 C-0.03986934 37.68768878 -0.02152939 18.84384911 0 0 Z " fill="#FFFFFF" transform="translate(1705,198)"/>
<path d="M0 0 C4.62 0 9.24 0 14 0 C14 174.24 14 348.48 14 528 C9.38 528 4.76 528 0 528 C0 353.76 0 179.52 0 0 Z " fill="#FFFFFF" transform="translate(562,24)"/>
<path d="M0 0 C6.75160438 8.33692586 9.26805809 18.22422362 8.4140625 28.74609375 C7.04321348 38.06535178 3.92535667 46.47182364 -3.7265625 52.40625 C-13.04497586 57.99403983 -23.64147192 58.9654561 -34.2109375 57.05859375 C-41.9706936 55.08786204 -48.26820927 50.47817298 -52.5859375 43.74609375 C-57.76004229 33.86387497 -58.11828176 23.15742408 -55.1484375 12.49609375 C-52.38506537 5.2434539 -47.82849996 -0.74693753 -41.09375 -4.7265625 C-27.99981476 -10.41691753 -11.02342822 -9.88413536 0 0 Z " fill="#FFFFFF" transform="translate(1757.5859375,119.25390625)"/>
<path d="M0 0 C6.99603006 4.94386124 11.67436344 11.44526545 14.03125 19.71875 C15.52761514 28.9962139 14.44389706 36.66890686 9.78125 44.90625 C3.6895507 52.61045793 -3.43992083 58.24066518 -13.34375 59.59375 C-22.08818816 60.48247693 -29.93662825 58.64445382 -37.09375 53.46875 C-43.34019466 48.22836988 -47.98722878 41.7328773 -49.34375 33.59375 C-50.26921313 22.58941498 -48.75639267 14.42871782 -41.71875 5.78125 C-30.88789911 -5.67835815 -13.53388396 -8.12033037 0 0 Z " fill="#FFFFFF" transform="translate(495.34375,240.40625)"/>
</svg>
